<svg xmlns="http://www.w3.org/2000/svg" xmlns:xlink="http://www.w3.org/1999/xlink" xmlns:serif="http://www.serif.com/" viewBox="-1.6 -3.2 35.2 43.2" version="1.1" xml:space="preserve" style="" x="0px" y="0px" fill-rule="evenodd" clip-rule="evenodd" stroke-linejoin="round" stroke-miterlimit="2"><g transform="matrix(1,0,0,1,-111,-111)"><g transform="matrix(0.857143,0,0,0.857143,15.5714,16.2857)"><path d="M130,112.833C125.493,112.833 121.833,116.493 121.833,121C121.833,125.507 125.493,129.167 130,129.167C134.507,129.167 138.167,125.507 138.167,121C138.167,116.493 134.507,112.833 130,112.833ZM130,115.167C133.22,115.167 135.833,117.78 135.833,121C135.833,124.22 133.22,126.833 130,126.833C126.78,126.833 124.167,124.22 124.167,121C124.167,117.78 126.78,115.167 130,115.167Z"/></g><g transform="matrix(1,0,0,1,0,-1)"><path d="M138,142C138.552,142 139,141.552 139,141C139,134.377 133.623,129 127,129C120.377,129 115,134.377 115,141C115,141.552 115.448,142 116,142L138,142ZM136.95,140L117.05,140C117.552,134.95 121.818,131 127,131C132.182,131 136.448,134.95 136.951,140L136.95,140Z"/></g></g></svg>